<mxfile host="app.diagrams.net" modified="2021-05-14T07:37:33.381Z" agent="5.0 (Windows NT 10.0; Win64; x64) AppleWebKit/537.36 (KHTML, like Gecko) Chrome/90.0.4430.212 Safari/537.36" etag="G7VRUWDCQ8vgOx-liF0c" version="14.6.13" type="github">
  <diagram id="zmjP5LkDLS9iXesQo253" name="Page-1">
    <mxGraphModel dx="1422" dy="706" grid="1" gridSize="10" guides="1" tooltips="1" connect="1" arrows="1" fold="1" page="1" pageScale="1" pageWidth="827" pageHeight="1169" math="0" shadow="0">
      <root>
        <mxCell id="0" />
        <mxCell id="1" parent="0" />
        <mxCell id="-hfr9d_szpg8WSoN8nSA-3" value="" style="edgeStyle=orthogonalEdgeStyle;rounded=0;orthogonalLoop=1;jettySize=auto;html=1;curved=1;" edge="1" parent="1" source="-hfr9d_szpg8WSoN8nSA-1" target="-hfr9d_szpg8WSoN8nSA-2">
          <mxGeometry relative="1" as="geometry" />
        </mxCell>
        <mxCell id="-hfr9d_szpg8WSoN8nSA-4" value="Text" style="edgeLabel;html=1;align=center;verticalAlign=middle;resizable=0;points=[];" vertex="1" connectable="0" parent="-hfr9d_szpg8WSoN8nSA-3">
          <mxGeometry x="-0.1804" y="19" relative="1" as="geometry">
            <mxPoint as="offset" />
          </mxGeometry>
        </mxCell>
        <mxCell id="-hfr9d_szpg8WSoN8nSA-1" value="还安好" style="rounded=1;whiteSpace=wrap;html=1;fillColor=#99FFFF;direction=west;" vertex="1" parent="1">
          <mxGeometry x="60" y="320" width="110" height="50" as="geometry" />
        </mxCell>
        <mxCell id="-hfr9d_szpg8WSoN8nSA-2" value="" style="rounded=1;whiteSpace=wrap;html=1;" vertex="1" parent="1">
          <mxGeometry x="460" y="120" width="120" height="60" as="geometry" />
        </mxCell>
        <mxCell id="-hfr9d_szpg8WSoN8nSA-6" style="edgeStyle=orthogonalEdgeStyle;curved=1;rounded=0;orthogonalLoop=1;jettySize=auto;html=1;exitX=1;exitY=1;exitDx=0;exitDy=0;entryX=0;entryY=1;entryDx=0;entryDy=0;" edge="1" parent="1" source="-hfr9d_szpg8WSoN8nSA-1" target="-hfr9d_szpg8WSoN8nSA-1">
          <mxGeometry relative="1" as="geometry">
            <Array as="points">
              <mxPoint x="60" y="270" />
              <mxPoint x="170" y="270" />
            </Array>
          </mxGeometry>
        </mxCell>
        <mxCell id="-hfr9d_szpg8WSoN8nSA-7" value="你哈哈" style="edgeLabel;html=1;align=center;verticalAlign=middle;resizable=0;points=[];" vertex="1" connectable="0" parent="-hfr9d_szpg8WSoN8nSA-6">
          <mxGeometry x="-0.2476" y="-3" relative="1" as="geometry">
            <mxPoint x="26" y="-3" as="offset" />
          </mxGeometry>
        </mxCell>
      </root>
    </mxGraphModel>
  </diagram>
</mxfile>
